<?xml version="1.0" encoding="UTF-8" standalone="no"?>
<svg
   xmlns:dc="http://purl.org/dc/elements/1.1/"
   xmlns:cc="http://creativecommons.org/ns#"
   xmlns:rdf="http://www.w3.org/1999/02/22-rdf-syntax-ns#"
   xmlns:svg="http://www.w3.org/2000/svg"
   xmlns="http://www.w3.org/2000/svg"
   xmlns:sodipodi="http://sodipodi.sourceforge.net/DTD/sodipodi-0.dtd"
   xmlns:inkscape="http://www.inkscape.org/namespaces/inkscape"
   width="773.02325"
   height="126.04515"
   viewBox="0 0 2493 406.49561"
   version="1.1"
   id="svg4856"
   sodipodi:docname="logo.svg"
   inkscape:version="0.92.4 (f8dce91, 2019-08-02)">
  <metadata
     id="metadata4862">
    <rdf:RDF>
      <cc:Work
         rdf:about="">
        <dc:format>image/svg+xml</dc:format>
        <dc:type
           rdf:resource="http://purl.org/dc/dcmitype/StillImage" />
        <dc:title></dc:title>
      </cc:Work>
    </rdf:RDF>
  </metadata>
  <defs
     id="defs4860" />
  <sodipodi:namedview
     pagecolor="#ffffff"
     bordercolor="#666666"
     borderopacity="1"
     objecttolerance="10"
     gridtolerance="10"
     guidetolerance="10"
     inkscape:pageopacity="0"
     inkscape:pageshadow="2"
     inkscape:window-width="2556"
     inkscape:window-height="1404"
     id="namedview4858"
     showgrid="false"
     inkscape:zoom="3.3941125"
     inkscape:cx="326.22765"
     inkscape:cy="17.267594"
     inkscape:window-x="2560"
     inkscape:window-y="16"
     inkscape:window-maximized="0"
     inkscape:current-layer="svg4856"
     units="px"
     scale-x="3.225"
     fit-margin-bottom="-2.7755576e-17"
     fit-margin-top="0"
     fit-margin-left="0"
     fit-margin-right="0" />
  <path
     d="m 0,29.31554 c 0,0 0,377.00002 0,377.00002 0,0 168,0 168,0 0,0 0,-41 0,-41 0,0 -120,0 -120,0 0,0 0,-336.00002 0,-336.00002 0,0 -48,0 -48,0 z"
     id="path4952"
     style="fill:#fffffe;fill-opacity:1"
     inkscape:connector-curvature="0" />
  <path
     d="m 249,29.31554 c 0,0 0,49.000002 0,49.000002 0,0 52,0 52,0 0,0 0,-49.000002 0,-49.000002 0,0 -52,0 -52,0 z"
     id="path4950"
     style="fill:#fffffe;fill-opacity:1"
     inkscape:connector-curvature="0" />
  <path
     style="fill:#fffffe;fill-opacity:1;stroke-width:0.31007752"
     d="M 123.41016 9.0898438 L 123.41016 125.99023 L 137.67383 125.99023 L 148.52734 125.99023 L 160 125.99023 C 167.9876 125.97783 176.98919 122.90935 181.25586 115.75586 C 182.46516 113.72795 183.23783 111.52206 183.83008 109.24609 C 184.36651 107.18408 184.80354 103.62747 184.80664 101.49414 L 184.80664 76.066406 C 184.80664 64.968732 185.76653 53.025336 174.88281 46.318359 C 172.85801 45.071848 170.65832 44.339026 168.37305 43.734375 C 166.36685 43.207243 162.67381 42.602931 160.62109 42.578125 C 156.50947 42.531613 147.83826 42.280057 144.18555 43.027344 C 141.47857 43.579282 140.38748 44.333482 137.98438 45.369141 L 137.98438 9.0898438 L 123.41016 9.0898438 z M 157.05859 55.236328 C 162.32851 55.279933 167.67019 56.081804 169.70508 61.802734 C 170.25081 63.334517 170.22932 63.945143 170.23242 65.523438 L 170.23242 103.04297 C 170.22932 104.27398 170.26675 104.93213 169.91016 106.14453 C 167.39233 114.71197 157.6523 113.27539 150.69727 113.27539 L 144.80664 113.27539 L 137.98438 113.27539 L 137.98438 85.679688 L 137.98438 65.214844 C 137.99058 62.197789 138.78828 59.685062 141.13867 57.623047 C 144.25185 54.894365 148.12665 55.291016 151.9375 55.291016 C 153.553 55.291016 155.30196 55.221793 157.05859 55.236328 z "
     transform="scale(3.225)"
     id="path4948" />
  <path
     d="m 1597,29.31554 c 0,0 0,42.000002 0,42.000002 0,0 85,0 85,0 0,0 0,335.000018 0,335.000018 0,0 48,0 48,0 0,0 0,-335.000018 0,-335.000018 0,0 85,0 85,0 0,0 0,-42.000002 0,-42.000002 0,0 -218,0 -218,0 z"
     id="path4946"
     style="fill:#ff7b13;fill-opacity:1"
     inkscape:connector-curvature="0" />
  <path
     d="m 1844,29.31554 c 0,0 0,377.00002 0,377.00002 0,0 181,0 181,0 0,0 0,-40 0,-40 0,0 -133,0 -133,0 0,0 0,-134 0,-134 0,0 119,0 119,0 0,0 0,-41 0,-41 0,0 -119,0 -119,0 0,0 0,-122.000018 0,-122.000018 0,0 133,0 133,0 0,0 0,-40.000002 0,-40.000002 0,0 -181,0 -181,0 z"
     id="path4944"
     style="fill:#ff7b13;fill-opacity:1"
     inkscape:connector-curvature="0" />
  <path
     d="m 2249,406.31556 c 0,0 0,-41 0,-41 0,0 -77,0 -77,0 -26.89,-0.04 -48.95,-13.96 -49,-43 0,0 0,-209.00001 0,-209.00001 0.04,-25.520008 19.13,-41.960008 44,-42.000008 0,0 82,0 82,0 0,0 0,-42.000002 0,-42.000002 0,0 -35,0 -35,0 -43.18,0 -97.9,-5.95 -125.14,36.000002 -4.14,6.39 -7.21,13.68 -9.28,21 -2.71,9.55 -4.56,23.090008 -4.58,33.000008 0,0 0,199.00001 0,199.00001 0.1,21.15 6.26,44.78 20.3,61 14.79,17.08 43.44,26.89 65.7,27 0,0 88,0 88,0 z"
     id="path4942"
     style="fill:#ff7b13;fill-opacity:1"
     inkscape:connector-curvature="0" />
  <path
     d="m 2288,29.31554 c 0,0 0,377.00002 0,377.00002 0,0 47,0 47,0 0,0 0,-173 0,-173 0,0 110,0 110,0 0,0 0,173 0,173 0,0 48,0 48,0 0,0 0,-377.00002 0,-377.00002 0,0 -48,0 -48,0 0,0 0,163.00002 0,163.00002 0,0 -110,0 -110,0 0,0 0,-163.00002 0,-163.00002 0,0 -47,0 -47,0 z"
     id="path4940"
     style="fill:#ff7b13;fill-opacity:1"
     inkscape:connector-curvature="0" />
  <path
     d="m 173,137.31556 c 0,0 0,41 0,41 0,0 79,0 79,0 0,0 0,228 0,228 0,0 126,0 126,0 0,0 0,-41 0,-41 0,0 -80,0 -80,0 0,0 0,-228 0,-228 0,0 -125,0 -125,0 z"
     id="path4938"
     style="fill:#fffffe;fill-opacity:1"
     inkscape:connector-curvature="0" />
  <path
     style="fill:#fffffe;fill-opacity:1;stroke-width:0.31007752"
     d="M 195.6582 42.578125 L 195.6582 55.291016 L 222.32617 55.291016 C 226.34478 55.340628 230.27262 56.713969 232.51758 60.251953 C 234.69742 63.684511 234.10937 70.145016 234.10938 74.207031 L 211.47266 74.207031 C 205.82925 74.216334 199.06379 76.224694 195.12891 80.435547 C 188.38782 87.644849 189.04106 97.644292 189.14648 106.76367 C 189.193 110.64894 190.53672 116.1075 192.98633 119.16797 C 196.72896 123.84394 203.47018 125.92202 209.30273 125.99023 L 229.14648 125.99023 C 232.69067 125.97473 236.241 124.43867 238.13867 121.33789 C 240.12317 123.30378 241.9062 124.85981 244.65039 125.66602 C 246.61318 126.24276 254.20771 125.99023 256.74414 125.99023 L 256.74414 114.20703 C 254.16119 114.15122 250.74514 113.80085 249.22266 111.41016 C 248.5994 110.43341 248.68474 109.41833 248.68164 108.31445 L 248.68164 98.703125 L 248.68164 70.486328 L 248.37305 67.384766 L 248.37305 64.59375 C 248.14049 61.589099 247.06429 57.080708 245.79297 54.361328 C 241.9294 46.103964 232.19586 42.590528 223.56641 42.578125 L 214.26367 42.578125 L 206.82227 42.578125 L 195.6582 42.578125 z M 214.26367 86.919922 L 234.10938 86.919922 L 234.10938 104.2832 C 234.10007 109.32506 233.16928 113.20407 227.28711 113.27539 L 211.7832 113.27539 C 205.70568 113.26609 203.48147 110.54414 203.41016 104.59375 C 203.33884 98.382897 202.36219 89.825339 209.92188 87.46875 C 211.44436 86.994331 212.69158 86.923023 214.26367 86.919922 z "
     transform="scale(3.225)"
     id="path4936" />
  <path
     d="m 850,137.31556 c 0,0 0,269 0,269 0,0 44,0 44,0 0,0 0,-202 0,-202 0.19,-16.11 9.94,-29.79 27,-30 4.4,-0.05 9.86,-0.33 14,1.11 12.15,4.22 14.86,18.49 15,29.89 0,0 0,201 0,201 0,0 44,0 44,0 0,0 0,-194 0,-194 0.21,-17.76 7.24,-37.75 28,-38 5.3,-0.06 11.07,-0.42 16,1.8 11.56,5.21 12.87,22.03 13,33.2 0,0 0,197 0,197 0,0 44,0 44,0 0,0 0,-151 0,-151 0,-26.86 2.4,-62.04 -6.69,-87 -7.23,-19.82 -27.86,-30.76 -48.31,-31 0,0 -18,0 -18,0 -15.31,0.07 -31.97,7.42 -41,20 -13.48,-13.44 -26.72,-19.91 -46,-20 -17.94,-0.08 -29.17,-1.5 -44,11 0,0 0,-11 0,-11 0,0 -41,0 -41,0 z"
     id="path4934"
     style="fill:#fffffe;fill-opacity:1"
     inkscape:connector-curvature="0" />
  <path
     style="fill:#fffffe;fill-opacity:1;stroke-width:0.31007752"
     d="M 373.02344 42.578125 C 367.99088 42.63704 361.42651 44.466137 357.51953 47.681641 C 349.61255 54.193269 350.38672 67.44719 350.38672 76.6875 L 350.38672 94.050781 C 350.38672 98.413572 350.25684 102.75484 350.98242 107.07422 C 351.96227 112.88817 354.27813 118.28385 359.37891 121.61719 C 361.43472 122.95982 364.14273 124.05506 366.51172 124.70312 C 369.26831 125.45661 372.33444 125.98713 375.19336 125.99023 L 404.03125 125.99023 L 404.03125 113.27539 L 377.05469 113.27539 C 370.40042 113.26609 364.99505 109.94058 364.96094 102.73438 L 364.96094 90.330078 L 409.30273 90.330078 L 409.30273 67.384766 C 409.29963 64.845231 408.80524 61.168241 408.17578 58.703125 C 407.56183 56.309327 406.72938 54.00179 405.43945 51.880859 C 401.73093 45.794038 394.5806 42.590528 387.59766 42.578125 L 382.63477 42.578125 L 373.02344 42.578125 z M 377.98438 55.291016 L 384.80664 55.291016 C 386.48106 55.294116 387.54028 55.344104 389.14648 55.939453 C 391.01005 56.630926 392.56453 57.958394 393.625 59.632812 C 395.30872 62.290177 395.03906 64.429727 395.03906 67.384766 L 395.03906 77.306641 L 364.96094 77.306641 L 364.96094 64.904297 C 364.98574 62.780266 365.44272 60.458164 366.71094 58.703125 C 369.41171 54.960489 373.92236 55.291016 377.98438 55.291016 z "
     transform="scale(3.225)"
     id="path4932" />
  <path
     d="m 1379,137.31556 c 0,0 0,269 0,269 0,0 47,0 47,0 0,0 0,-195 0,-195 0.01,-4.49 -0.1,-6.62 1.36,-11 8.02,-24.04 29.34,-22 49.64,-22 15.11,0 31.14,-2.47 42.98,9.04 3.99,3.87 6.62,7.71 8.47,12.96 1.57,4.45 1.54,7.41 1.55,12 0,0 0,194 0,194 0,0 47,0 47,0 0,0 0,-192 0,-192 -0.03,-7.21 -1.98,-20.09 -4.04,-27 -2.26,-7.63 -4.83,-14.36 -9.32,-21 -23.04,-34.12 -67.91,-29.06 -103.64,-29 -13.44,0.02 -26.27,3.79 -37,12 0,0 0,-12 0,-12 0,0 -44,0 -44,0 z"
     id="path4930"
     style="fill:#fffffe;fill-opacity:1"
     inkscape:connector-curvature="0" />
</svg>
