<?xml version="1.0" encoding="UTF-8" standalone="no"?>
<svg
   xmlns:dc="http://purl.org/dc/elements/1.1/"
   xmlns:cc="http://creativecommons.org/ns#"
   xmlns:rdf="http://www.w3.org/1999/02/22-rdf-syntax-ns#"
   xmlns:svg="http://www.w3.org/2000/svg"
   xmlns="http://www.w3.org/2000/svg"
   xmlns:sodipodi="http://sodipodi.sourceforge.net/DTD/sodipodi-0.dtd"
   xmlns:inkscape="http://www.inkscape.org/namespaces/inkscape"
   width="773.02325"
   height="117.04528"
   viewBox="0 0 2493 377.47103"
   version="1.1"
   id="svg4856"
   sodipodi:docname="logo.svg"
   inkscape:version="0.92.4 (f8dce91, 2019-08-02)">
  <metadata
     id="metadata4862">
    <rdf:RDF>
      <cc:Work
         rdf:about="">
        <dc:format>image/svg+xml</dc:format>
        <dc:type
           rdf:resource="http://purl.org/dc/dcmitype/StillImage" />
        <dc:title></dc:title>
      </cc:Work>
    </rdf:RDF>
  </metadata>
  <defs
     id="defs4860" />
  <sodipodi:namedview
     pagecolor="#ffffff"
     bordercolor="#666666"
     borderopacity="1"
     objecttolerance="10"
     gridtolerance="10"
     guidetolerance="10"
     inkscape:pageopacity="0"
     inkscape:pageshadow="2"
     inkscape:window-width="2556"
     inkscape:window-height="1404"
     id="namedview4858"
     showgrid="false"
     inkscape:zoom="3.3941125"
     inkscape:cx="326.22765"
     inkscape:cy="17.267717"
     inkscape:window-x="2560"
     inkscape:window-y="16"
     inkscape:window-maximized="0"
     inkscape:current-layer="svg4856"
     units="px"
     scale-x="3.225"
     fit-margin-bottom="-2.7755576e-17"
     fit-margin-top="0"
     fit-margin-left="0"
     fit-margin-right="0" />
  <path
     d="m 0,0.29056242 c 0,0 0,377.00001758 0,377.00001758 0,0 168,0 168,0 0,0 0,-41 0,-41 0,0 -120,0 -120,0 0,0 0,-336.00001758 0,-336.00001758 0,0 -48,0 -48,0 z"
     id="path4952"
     style="fill:#fffffe;fill-opacity:1"
     inkscape:connector-curvature="0" />
  <path
     d="m 249,0.29056242 c 0,0 0,49.00000158 0,49.00000158 0,0 52,0 52,0 0,0 0,-49.00000158 0,-49.00000158 0,0 -52,0 -52,0 z"
     id="path4950"
     style="fill:#fffffe;fill-opacity:1"
     inkscape:connector-curvature="0" />
  <path
     style="fill:#fffffe;fill-opacity:1;stroke-width:1"
     d="M 397.99777,0.28976867 V 377.29351 H 443.9981 479.00067 516 c 25.76001,-0.04 54.79014,-9.93583 68.55015,-33.00584 3.89999,-6.54001 6.39185,-13.654 8.30186,-20.99401 1.72998,-6.64998 3.13941,-18.12005 3.1494,-25.00004 v -82.00444 c 0,-35.79 3.09565,-74.30745 -32.00435,-95.93745 -6.52998,-4.02 -13.62398,-6.38335 -20.99397,-8.33335 -6.47,-1.7 -18.38005,-3.64891 -25.00007,-3.7289 -13.25998,-0.15 -41.22463,-0.96127 -53.00462,1.44873 -8.73001,1.78 -12.24878,4.21229 -19.99877,7.55229 V 0.28976867 Z M 506.51395,149.11218 c 16.99549,0.14061 34.22241,2.72666 40.78493,21.17666 1.75998,4.94 1.69068,6.90927 1.70067,11.99927 V 303.2886 c -0.01,3.97001 0.11062,6.09254 -1.03928,10.00253 -8.12001,27.63 -39.5316,22.99703 -61.96157,22.99703 h -18.99729 -22.00178 v -88.99614 -65.99913 c 0.0193,-9.73 2.59257,-17.83354 10.17258,-24.48354 10.04001,-8.8 22.53624,-7.5208 34.82623,-7.5208 5.20999,0 10.85038,-0.22324 16.51551,-0.17638 z"
     id="path4948"
     inkscape:connector-curvature="0" />
  <path
     d="m 1597,0.29056242 c 0,0 0,42.00000158 0,42.00000158 0,0 85,0 85,0 0,0 0,335.000016 0,335.000016 0,0 48,0 48,0 0,0 0,-335.000016 0,-335.000016 0,0 85,0 85,0 0,0 0,-42.00000158 0,-42.00000158 0,0 -218,0 -218,0 z"
     id="path4946"
     style="fill:#ff7b13;fill-opacity:1"
     inkscape:connector-curvature="0" />
  <path
     d="m 1844,0.29056242 c 0,0 0,377.00001758 0,377.00001758 0,0 181,0 181,0 0,0 0,-40 0,-40 0,0 -133,0 -133,0 0,0 0,-134 0,-134 0,0 119,0 119,0 0,0 0,-41 0,-41 0,0 -119,0 -119,0 0,0 0,-122.000016 0,-122.000016 0,0 133,0 133,0 0,0 0,-40.00000158 0,-40.00000158 0,0 -181,0 -181,0 z"
     id="path4944"
     style="fill:#ff7b13;fill-opacity:1"
     inkscape:connector-curvature="0" />
  <path
     d="m 2249,377.29058 c 0,0 0,-41 0,-41 0,0 -77,0 -77,0 -26.89,-0.04 -48.95,-13.96 -49,-43 0,0 0,-209.000008 0,-209.000008 0.04,-25.520008 19.13,-41.960008 44,-42.000008 0,0 82,0 82,0 0,0 0,-42.00000158 0,-42.00000158 0,0 -35,0 -35,0 -43.18,0 -97.9,-5.95000002 -125.14,36.00000158 -4.14,6.39 -7.21,13.68 -9.28,21 -2.71,9.55 -4.56,23.090008 -4.58,33.000008 0,0 0,199.000008 0,199.000008 0.1,21.15 6.26,44.78 20.3,61 14.79,17.08 43.44,26.89 65.7,27 0,0 88,0 88,0 z"
     id="path4942"
     style="fill:#ff7b13;fill-opacity:1"
     inkscape:connector-curvature="0" />
  <path
     d="m 2288,0.29056242 c 0,0 0,377.00001758 0,377.00001758 0,0 47,0 47,0 0,0 0,-173 0,-173 0,0 110,0 110,0 0,0 0,173 0,173 0,0 48,0 48,0 0,0 0,-377.00001758 0,-377.00001758 0,0 -48,0 -48,0 0,0 0,163.00001758 0,163.00001758 0,0 -110,0 -110,0 0,0 0,-163.00001758 0,-163.00001758 0,0 -47,0 -47,0 z"
     id="path4940"
     style="fill:#ff7b13;fill-opacity:1"
     inkscape:connector-curvature="0" />
  <path
     d="m 173,108.29058 c 0,0 0,41 0,41 0,0 79,0 79,0 0,0 0,228 0,228 0,0 126,0 126,0 0,0 0,-41 0,-41 0,0 -80,0 -80,0 0,0 0,-228 0,-228 0,0 -125,0 -125,0 z"
     id="path4938"
     style="fill:#fffffe;fill-opacity:1"
     inkscape:connector-curvature="0" />
  <path
     style="fill:#fffffe;fill-opacity:1;stroke-width:1"
     d="m 630.9977,108.28948 v 40.99907 h 86.0042 c 12.96002,0.15999 25.6273,4.58902 32.8673,15.99902 7.02998,11.07 5.13352,31.90513 5.13355,45.00513 h -73.00342 c -18.2,0.03 -40.01861,6.50696 -52.7086,20.08696 -21.74001,23.25 -19.63331,55.4982 -19.29333,84.9082 0.14996,12.52999 4.48352,30.13385 12.38351,40.00387 12.06999,15.08 33.81042,21.78181 52.62039,22.00178 h 63.9961 c 11.43001,-0.05 22.87982,-5.00378 28.99981,-15.00379 6.40001,6.33999 12.15028,11.35819 21.0003,13.95822 6.33,1.85998 30.82235,1.04557 39.00234,1.04557 v -38.00082 c -8.33001,-0.17995 -19.34677,-1.30993 -24.25677,-9.0199 -2.01001,-3.15002 -1.73479,-6.42365 -1.74479,-9.98367 V 289.2926 198.29343 l -0.9952,-10.00254 v -9.00102 c -0.75001,-9.69 -4.22075,-24.22956 -8.32076,-32.99956 -12.46002,-26.63 -43.85068,-37.96083 -71.68066,-38.00083 h -30.00133 -23.99852 z m 60.00264,143.00229 h 64.00241 v 55.99657 c -0.029,16.26 -3.03182,28.76981 -22.00182,28.99982 h -50.00011 c -19.6,-0.029 -26.77308,-8.80829 -27.00305,-27.99829 -0.22995,-20.03 -3.37971,-47.62813 21.00029,-55.22813 4.91,-1.53 8.93229,-1.75997 14.00228,-1.76997 z"
     id="path4936"
     inkscape:connector-curvature="0" />
  <path
     d="m 850,108.29058 c 0,0 0,269 0,269 0,0 44,0 44,0 0,0 0,-202 0,-202 0.19,-16.11 9.94,-29.79 27,-30 4.4,-0.05 9.86,-0.33 14,1.11 12.15,4.22 14.86,18.49 15,29.89 0,0 0,201 0,201 0,0 44,0 44,0 0,0 0,-194 0,-194 0.21,-17.76 7.24,-37.75 28,-38 5.3,-0.06 11.07,-0.42 16,1.8 11.56,5.21 12.87,22.03 13,33.2 0,0 0,197 0,197 0,0 44,0 44,0 0,0 0,-151 0,-151 0,-26.86 2.4,-62.04 -6.69,-87 -7.23,-19.82 -27.86,-30.76 -48.31,-31 0,0 -18,0 -18,0 -15.31,0.07 -31.97,7.42 -41,20 -13.48,-13.44 -26.72,-19.91 -46,-20 -17.94,-0.08 -29.17,-1.5 -44,11 0,0 0,-11 0,-11 0,0 -41,0 -41,0 z"
     id="path4934"
     style="fill:#fffffe;fill-opacity:1"
     inkscape:connector-curvature="0" />
  <path
     style="fill:#fffffe;fill-opacity:1;stroke-width:1"
     d="m 1203.0006,108.28948 c -16.23,0.18998 -37.4001,6.08883 -50.0001,16.45883 -25.5,21 -23.0033,63.7439 -23.0033,93.5439 v 55.99658 c 0,14.07 -0.4189,28.07059 1.9211,42.00059 3.16,18.74999 10.6287,36.15106 27.0787,46.90108 6.63,4.32998 15.3633,7.86213 23.0033,9.95212 8.89,2.43001 18.7783,4.14094 27.9983,4.15093 h 93.0022 v -41.00535 h -86.9994 c -21.46,-0.029 -38.8924,-10.75477 -39.0024,-33.99476 v -40.00388 h 143.0023 v -73.99863 c -0.01,-8.19 -1.6044,-20.04829 -3.6344,-27.99829 -1.98,-7.72 -4.6646,-15.1618 -8.8247,-22.00181 -11.96,-19.63 -35.0198,-29.96131 -57.5397,-30.00131 h -16.0054 z m 15.999,40.99907 h 22.0018 c 5.4,0.01 8.816,0.17121 13.996,2.09121 6.01,2.23 11.0232,6.51108 14.4432,11.91108 5.43,8.57 4.5604,15.47005 4.5604,25.00005 v 31.99805 h -97.002 v -39.99756 c 0.08,-6.85 1.5538,-14.33878 5.6438,-19.99878 8.71,-12.07 23.2568,-11.00405 36.3568,-11.00405 z"
     id="path4932"
     inkscape:connector-curvature="0" />
  <path
     d="m 1379,108.29058 c 0,0 0,269 0,269 0,0 47,0 47,0 0,0 0,-195 0,-195 0.01,-4.49 -0.1,-6.62 1.36,-11 8.02,-24.04 29.34,-22 49.64,-22 15.11,0 31.14,-2.47 42.98,9.04 3.99,3.87 6.62,7.71 8.47,12.96 1.57,4.45 1.54,7.41 1.55,12 0,0 0,194 0,194 0,0 47,0 47,0 0,0 0,-192 0,-192 -0.03,-7.21 -1.98,-20.09 -4.04,-27 -2.26,-7.63 -4.83,-14.36 -9.32,-21 -23.04,-34.12 -67.91,-29.06 -103.64,-29 -13.44,0.02 -26.27,3.79 -37,12 0,0 0,-12 0,-12 0,0 -44,0 -44,0 z"
     id="path4930"
     style="fill:#fffffe;fill-opacity:1"
     inkscape:connector-curvature="0" />
</svg>
